<?xml version="1.0" encoding="utf-8" standalone="no"?>
<!DOCTYPE svg PUBLIC "-//W3C//DTD SVG 1.1//EN"
  "http://www.w3.org/Graphics/SVG/1.1/DTD/svg11.dtd">
<svg xmlns:xlink="http://www.w3.org/1999/xlink" width="432pt" height="216pt" viewBox="0 0 432 216" xmlns="http://www.w3.org/2000/svg" version="1.1">
 <metadata>
  <rdf:RDF xmlns:dc="http://purl.org/dc/elements/1.1/" xmlns:cc="http://creativecommons.org/ns#" xmlns:rdf="http://www.w3.org/1999/02/22-rdf-syntax-ns#">
   <cc:Work>
    <dc:type rdf:resource="http://purl.org/dc/dcmitype/StillImage"/>
    <dc:date>2024-05-02T13:37:33.944186</dc:date>
    <dc:format>image/svg+xml</dc:format>
    <dc:creator>
     <cc:Agent>
      <dc:title>Matplotlib v3.6.3, https://matplotlib.org/</dc:title>
     </cc:Agent>
    </dc:creator>
   </cc:Work>
  </rdf:RDF>
 </metadata>
 <defs>
  <style type="text/css">*{stroke-linejoin: round; stroke-linecap: butt}</style>
 </defs>
 <g id="figure_1">
  <g id="patch_1">
   <path d="M 0 216 
L 432 216 
L 432 0 
L 0 0 
L 0 216 
z
" style="fill: none"/>
  </g>
  <g id="axes_1">
   <g id="line2d_1">
    <path d="M 221.4 67.5 
L 225.638315 67.800562 
L 229.808435 68.691385 
L 233.843259 70.140271 
L 237.677867 72.094855 
L 241.250557 74.484493 
L 244.503845 77.222818 
L 247.385384 80.210857 
L 249.848807 83.340618 
L 251.854479 86.49898 
L 253.370127 89.571794 
L 254.371364 92.448 
L 254.842079 95.023644 
L 254.774698 97.205635 
L 254.170306 98.915111 
L 253.038627 100.090287 
L 251.397872 100.688689 
L 249.274439 100.688689 
L 246.702496 100.090287 
L 243.723426 98.915111 
L 240.385164 97.205635 
L 236.741424 95.023644 
L 232.850834 92.448 
L 228.775997 89.571794 
L 224.582476 86.49898 
L 220.337749 83.340618 
L 216.110113 80.210857 
L 211.967594 77.222818 
L 207.976846 74.484493 
L 204.202081 72.094855 
L 200.704037 70.140271 
L 197.538999 68.691385 
L 194.757894 67.800562 
L 192.405469 67.5 
L 190.519578 67.800562 
L 189.130565 68.691385 
L 188.260778 70.140271 
L 187.924214 72.094855 
L 188.126288 74.484493 
L 188.863749 77.222818 
L 190.12473 80.210857 
L 191.888941 83.340618 
L 194.127997 86.49898 
L 196.80587 89.571794 
L 199.879471 92.448 
L 203.299345 95.023644 
L 207.010466 97.205635 
L 210.95312 98.915111 
L 215.063868 100.090287 
L 219.276567 100.688689 
L 223.523433 100.688689 
L 227.736132 100.090287 
L 231.84688 98.915111 
L 235.789534 97.205635 
L 239.500655 95.023644 
L 242.920529 92.448 
L 245.99413 89.571794 
L 248.672003 86.49898 
L 250.911059 83.340618 
L 252.67527 80.210857 
L 253.936251 77.222818 
L 254.673712 74.484493 
L 254.875786 72.094855 
L 254.539222 70.140271 
L 253.669435 68.691385 
L 252.280422 67.800562 
L 250.394531 67.5 
L 248.042106 67.800562 
L 245.261001 68.691385 
L 242.095963 70.140271 
L 238.597919 72.094855 
L 234.823154 74.484493 
L 230.832406 77.222818 
L 226.689887 80.210857 
L 222.462251 83.340618 
L 218.217524 86.49898 
L 214.024003 89.571794 
L 209.949166 92.448 
L 206.058576 95.023644 
L 202.414836 97.205635 
L 199.076574 98.915111 
L 196.097504 100.090287 
L 193.525561 100.688689 
L 191.402128 100.688689 
L 189.761373 100.090287 
L 188.629694 98.915111 
L 188.025302 97.205635 
L 187.957921 95.023644 
L 188.428636 92.448 
L 189.429873 89.571794 
L 190.945521 86.49898 
L 192.951193 83.340618 
L 195.414616 80.210857 
L 198.296155 77.222818 
L 201.549443 74.484493 
L 205.122133 72.094855 
L 208.956741 70.140271 
L 212.991565 68.691385 
L 217.161685 67.800562 
L 221.4 67.5 
" clip-path="url(#pc657c6e1a2)" style="fill: none; stroke: #00008b; stroke-width: 2; stroke-linecap: square"/>
   </g>
   <g id="text_1">
    <!-- Raphaël Mottelet -->
    <g style="fill: #00008b" transform="translate(1683.303651 -718.656875) scale(0.14 -0.14)">
     <defs>
      <path id="DejaVuSans-Oblique-52" d="M 1613 4147 
L 1294 2491 
L 2106 2491 
Q 2584 2491 2879 2755 
Q 3175 3019 3175 3444 
Q 3175 3784 2976 3965 
Q 2778 4147 2406 4147 
L 1613 4147 
z
M 2772 2241 
Q 2972 2194 3105 2009 
Q 3238 1825 3413 1275 
L 3809 0 
L 3144 0 
L 2778 1197 
Q 2638 1659 2453 1815 
Q 2269 1972 1888 1972 
L 1191 1972 
L 806 0 
L 172 0 
L 1081 4666 
L 2503 4666 
Q 3150 4666 3495 4373 
Q 3841 4081 3841 3531 
Q 3841 3044 3547 2687 
Q 3253 2331 2772 2241 
z
" transform="scale(0.015625)"/>
      <path id="DejaVuSans-Oblique-61" d="M 3438 1997 
L 3047 0 
L 2472 0 
L 2578 531 
Q 2325 219 2001 64 
Q 1678 -91 1281 -91 
Q 834 -91 548 182 
Q 263 456 263 884 
Q 263 1497 752 1853 
Q 1241 2209 2100 2209 
L 2900 2209 
L 2931 2363 
Q 2938 2388 2941 2417 
Q 2944 2447 2944 2509 
Q 2944 2788 2717 2942 
Q 2491 3097 2081 3097 
Q 1800 3097 1504 3025 
Q 1209 2953 897 2809 
L 997 3341 
Q 1322 3463 1633 3523 
Q 1944 3584 2234 3584 
Q 2853 3584 3176 3315 
Q 3500 3047 3500 2534 
Q 3500 2431 3484 2292 
Q 3469 2153 3438 1997 
z
M 2816 1759 
L 2241 1759 
Q 1534 1759 1195 1570 
Q 856 1381 856 984 
Q 856 709 1029 553 
Q 1203 397 1509 397 
Q 1978 397 2328 733 
Q 2678 1069 2791 1631 
L 2816 1759 
z
" transform="scale(0.015625)"/>
      <path id="DejaVuSans-Oblique-70" d="M 3175 2156 
Q 3175 2616 2975 2859 
Q 2775 3103 2400 3103 
Q 2144 3103 1911 2972 
Q 1678 2841 1497 2591 
Q 1319 2344 1212 1994 
Q 1106 1644 1106 1300 
Q 1106 863 1306 627 
Q 1506 391 1875 391 
Q 2147 391 2380 519 
Q 2613 647 2778 891 
Q 2956 1147 3065 1494 
Q 3175 1841 3175 2156 
z
M 1394 2969 
Q 1625 3272 1939 3428 
Q 2253 3584 2638 3584 
Q 3175 3584 3472 3232 
Q 3769 2881 3769 2247 
Q 3769 1728 3584 1258 
Q 3400 788 3053 416 
Q 2822 169 2531 39 
Q 2241 -91 1919 -91 
Q 1547 -91 1294 64 
Q 1041 219 916 525 
L 556 -1331 
L -19 -1331 
L 922 3500 
L 1497 3500 
L 1394 2969 
z
" transform="scale(0.015625)"/>
      <path id="DejaVuSans-Oblique-68" d="M 3566 2113 
L 3156 0 
L 2578 0 
L 2988 2091 
Q 3016 2238 3031 2350 
Q 3047 2463 3047 2528 
Q 3047 2791 2881 2937 
Q 2716 3084 2419 3084 
Q 1956 3084 1617 2771 
Q 1278 2459 1178 1941 
L 800 0 
L 225 0 
L 1172 4863 
L 1747 4863 
L 1375 2950 
Q 1594 3244 1934 3414 
Q 2275 3584 2650 3584 
Q 3113 3584 3367 3334 
Q 3622 3084 3622 2631 
Q 3622 2519 3608 2391 
Q 3594 2263 3566 2113 
z
" transform="scale(0.015625)"/>
      <path id="DejaVuSans-Oblique-eb" d="M 3078 2063 
Q 3088 2113 3092 2166 
Q 3097 2219 3097 2272 
Q 3097 2653 2873 2875 
Q 2650 3097 2266 3097 
Q 1838 3097 1509 2826 
Q 1181 2556 1013 2059 
L 3078 2063 
z
M 3578 1613 
L 903 1613 
Q 884 1494 878 1425 
Q 872 1356 872 1306 
Q 872 872 1139 634 
Q 1406 397 1894 397 
Q 2269 397 2603 481 
Q 2938 566 3225 728 
L 3116 159 
Q 2806 34 2476 -28 
Q 2147 -91 1806 -91 
Q 1078 -91 686 257 
Q 294 606 294 1247 
Q 294 1794 489 2264 
Q 684 2734 1063 3103 
Q 1306 3334 1642 3459 
Q 1978 3584 2356 3584 
Q 2950 3584 3301 3228 
Q 3653 2872 3653 2272 
Q 3653 2128 3634 1964 
Q 3616 1800 3578 1613 
z
M 1644 4850 
L 2285 4850 
L 2157 4219 
L 1522 4219 
L 1644 4850 
z
M 2866 4850 
L 3500 4850 
L 3378 4219 
L 2744 4219 
L 2866 4850 
z
" transform="scale(0.015625)"/>
      <path id="DejaVuSans-Oblique-6c" d="M 1172 4863 
L 1747 4863 
L 800 0 
L 225 0 
L 1172 4863 
z
" transform="scale(0.015625)"/>
      <path id="DejaVuSans-Oblique-20" transform="scale(0.015625)"/>
      <path id="DejaVuSans-Oblique-4d" d="M 1081 4666 
L 2028 4666 
L 2572 1522 
L 4378 4666 
L 5350 4666 
L 4441 0 
L 3828 0 
L 4622 4091 
L 2791 897 
L 2175 897 
L 1581 4103 
L 788 0 
L 172 0 
L 1081 4666 
z
" transform="scale(0.015625)"/>
      <path id="DejaVuSans-Oblique-6f" d="M 1625 -91 
Q 1009 -91 651 289 
Q 294 669 294 1325 
Q 294 1706 417 2101 
Q 541 2497 738 2766 
Q 1047 3184 1428 3384 
Q 1809 3584 2291 3584 
Q 2888 3584 3255 3212 
Q 3622 2841 3622 2241 
Q 3622 1825 3500 1412 
Q 3378 1000 3181 728 
Q 2875 309 2494 109 
Q 2113 -91 1625 -91 
z
M 891 1344 
Q 891 869 1089 633 
Q 1288 397 1691 397 
Q 2269 397 2648 901 
Q 3028 1406 3028 2181 
Q 3028 2634 2825 2865 
Q 2622 3097 2228 3097 
Q 1903 3097 1650 2945 
Q 1397 2794 1197 2484 
Q 1050 2253 970 1956 
Q 891 1659 891 1344 
z
" transform="scale(0.015625)"/>
      <path id="DejaVuSans-Oblique-74" d="M 2706 3500 
L 2619 3053 
L 1472 3053 
L 1100 1153 
Q 1081 1047 1072 975 
Q 1063 903 1063 863 
Q 1063 663 1183 572 
Q 1303 481 1569 481 
L 2150 481 
L 2053 0 
L 1503 0 
Q 991 0 739 200 
Q 488 400 488 806 
Q 488 878 497 964 
Q 506 1050 525 1153 
L 897 3053 
L 409 3053 
L 500 3500 
L 978 3500 
L 1172 4494 
L 1747 4494 
L 1556 3500 
L 2706 3500 
z
" transform="scale(0.015625)"/>
      <path id="DejaVuSans-Oblique-65" d="M 3078 2063 
Q 3088 2113 3092 2166 
Q 3097 2219 3097 2272 
Q 3097 2653 2873 2875 
Q 2650 3097 2266 3097 
Q 1838 3097 1509 2826 
Q 1181 2556 1013 2059 
L 3078 2063 
z
M 3578 1613 
L 903 1613 
Q 884 1494 878 1425 
Q 872 1356 872 1306 
Q 872 872 1139 634 
Q 1406 397 1894 397 
Q 2269 397 2603 481 
Q 2938 566 3225 728 
L 3116 159 
Q 2806 34 2476 -28 
Q 2147 -91 1806 -91 
Q 1078 -91 686 257 
Q 294 606 294 1247 
Q 294 1794 489 2264 
Q 684 2734 1063 3103 
Q 1306 3334 1642 3459 
Q 1978 3584 2356 3584 
Q 2950 3584 3301 3228 
Q 3653 2872 3653 2272 
Q 3653 2128 3634 1964 
Q 3616 1800 3578 1613 
z
" transform="scale(0.015625)"/>
     </defs>
     <use xlink:href="#DejaVuSans-Oblique-52"/>
     <use xlink:href="#DejaVuSans-Oblique-61" x="69.482422"/>
     <use xlink:href="#DejaVuSans-Oblique-70" x="130.761719"/>
     <use xlink:href="#DejaVuSans-Oblique-68" x="194.238281"/>
     <use xlink:href="#DejaVuSans-Oblique-61" x="257.617188"/>
     <use xlink:href="#DejaVuSans-Oblique-eb" x="318.896484"/>
     <use xlink:href="#DejaVuSans-Oblique-6c" x="380.419922"/>
     <use xlink:href="#DejaVuSans-Oblique-20" x="408.203125"/>
     <use xlink:href="#DejaVuSans-Oblique-4d" x="439.990234"/>
     <use xlink:href="#DejaVuSans-Oblique-6f" x="526.269531"/>
     <use xlink:href="#DejaVuSans-Oblique-74" x="587.451172"/>
     <use xlink:href="#DejaVuSans-Oblique-74" x="626.660156"/>
     <use xlink:href="#DejaVuSans-Oblique-65" x="665.869141"/>
     <use xlink:href="#DejaVuSans-Oblique-6c" x="727.392578"/>
     <use xlink:href="#DejaVuSans-Oblique-65" x="755.175781"/>
     <use xlink:href="#DejaVuSans-Oblique-74" x="816.699219"/>
    </g>
   </g>
  </g>
 </g>
 <defs>
  <clipPath id="pc657c6e1a2">
   <rect x="54" y="25.92" width="334.8" height="166.32"/>
  </clipPath>
 </defs>
</svg>
